<svg id="mermaid-fkeujhule" xmlns="http://www.w3.org/2000/svg" viewBox="0 0 465.873046875 1220" role="graphics-document document" aria-roledescription="er" style="width: 100%; height: auto; max-width: 100%;"><style>#mermaid-fkeujhule{font-family:"trebuchet ms",verdana,arial,sans-serif;font-size:16px;fill:#c8d8ec;}#mermaid-fkeujhule .error-icon{fill:#a44141;}#mermaid-fkeujhule .error-text{fill:#ddd;stroke:#ddd;}#mermaid-fkeujhule .edge-thickness-normal{stroke-width:1px;}#mermaid-fkeujhule .edge-thickness-thick{stroke-width:3.5px;}#mermaid-fkeujhule .edge-pattern-solid{stroke-dasharray:0;}#mermaid-fkeujhule .edge-thickness-invisible{stroke-width:0;fill:none;}#mermaid-fkeujhule .edge-pattern-dashed{stroke-dasharray:3;}#mermaid-fkeujhule .edge-pattern-dotted{stroke-dasharray:2;}#mermaid-fkeujhule .marker{fill:#2a4060;stroke:#2a4060;}#mermaid-fkeujhule .marker.cross{stroke:#2a4060;}#mermaid-fkeujhule svg{font-family:"trebuchet ms",verdana,arial,sans-serif;font-size:16px;}#mermaid-fkeujhule p{margin:0;}#mermaid-fkeujhule .entityBox{fill:#1a2235;stroke:#2a4060;}#mermaid-fkeujhule .attributeBoxOdd{fill:hsl(221.0526315789, 42.2222222222%, 20.8235294118%);stroke:#2a4060;}#mermaid-fkeujhule .attributeBoxEven{fill:hsl(221.0526315789, 42.2222222222%, 10.8235294118%);stroke:#2a4060;}#mermaid-fkeujhule .relationshipLabelBox{fill:#1a2235;opacity:0.7;background-color:#1a2235;}#mermaid-fkeujhule .relationshipLabelBox rect{opacity:0.5;}#mermaid-fkeujhule .relationshipLine{stroke:#2a4060;}#mermaid-fkeujhule .entityTitleText{text-anchor:middle;font-size:18px;fill:#c8d8ec;}#mermaid-fkeujhule #MD_PARENT_START{fill:#f5f5f5!important;stroke:#2a4060!important;stroke-width:1;}#mermaid-fkeujhule #MD_PARENT_END{fill:#f5f5f5!important;stroke:#2a4060!important;stroke-width:1;}#mermaid-fkeujhule :root{--mermaid-font-family:"trebuchet ms",verdana,arial,sans-serif;}</style><g/><defs><marker id="MD_PARENT_START" refX="0" refY="7" markerWidth="190" markerHeight="240" orient="auto"><path d="M 18,7 L9,13 L1,7 L9,1 Z"/></marker></defs><defs><marker id="MD_PARENT_END" refX="19" refY="7" markerWidth="20" markerHeight="28" orient="auto"><path d="M 18,7 L9,13 L1,7 L9,1 Z"/></marker></defs><defs><marker id="ONLY_ONE_START" refX="0" refY="9" markerWidth="18" markerHeight="18" orient="auto"><path stroke="gray" fill="none" d="M9,0 L9,18 M15,0 L15,18"/></marker></defs><defs><marker id="ONLY_ONE_END" refX="18" refY="9" markerWidth="18" markerHeight="18" orient="auto"><path stroke="gray" fill="none" d="M3,0 L3,18 M9,0 L9,18"/></marker></defs><defs><marker id="ZERO_OR_ONE_START" refX="0" refY="9" markerWidth="30" markerHeight="18" orient="auto"><circle stroke="gray" fill="white" cx="21" cy="9" r="6"/><path stroke="gray" fill="none" d="M9,0 L9,18"/></marker></defs><defs><marker id="ZERO_OR_ONE_END" refX="30" refY="9" markerWidth="30" markerHeight="18" orient="auto"><circle stroke="gray" fill="white" cx="9" cy="9" r="6"/><path stroke="gray" fill="none" d="M21,0 L21,18"/></marker></defs><defs><marker id="ONE_OR_MORE_START" refX="18" refY="18" markerWidth="45" markerHeight="36" orient="auto"><path stroke="gray" fill="none" d="M0,18 Q 18,0 36,18 Q 18,36 0,18 M42,9 L42,27"/></marker></defs><defs><marker id="ONE_OR_MORE_END" refX="27" refY="18" markerWidth="45" markerHeight="36" orient="auto"><path stroke="gray" fill="none" d="M3,9 L3,27 M9,18 Q27,0 45,18 Q27,36 9,18"/></marker></defs><defs><marker id="ZERO_OR_MORE_START" refX="18" refY="18" markerWidth="57" markerHeight="36" orient="auto"><circle stroke="gray" fill="white" cx="48" cy="18" r="6"/><path stroke="gray" fill="none" d="M0,18 Q18,0 36,18 Q18,36 0,18"/></marker></defs><defs><marker id="ZERO_OR_MORE_END" refX="39" refY="18" markerWidth="57" markerHeight="36" orient="auto"><circle stroke="gray" fill="white" cx="9" cy="18" r="6"/><path stroke="gray" fill="none" d="M21,18 Q39,0 57,18 Q39,36 21,18"/></marker></defs><path class="er relationshipLine" d="M257.23,130.613L275.28,142.844C293.33,155.075,329.431,179.538,347.481,200.102C365.531,220.667,365.531,237.333,365.531,245.667L365.531,254" marker-end="url(#ZERO_OR_MORE_END)" marker-start="url(#ONLY_ONE_START)" style="stroke: gray; fill: none;"/><path class="er relationshipLine" d="M135.603,154L128.48,162.333C121.358,170.667,107.113,187.333,99.99,218.833C92.868,250.333,92.868,296.667,92.868,343C92.868,389.333,92.868,435.667,97.713,467.167C102.558,498.667,112.248,515.333,117.093,523.667L121.938,532" marker-end="url(#ZERO_OR_MORE_END)" marker-start="url(#ONLY_ONE_START)" style="stroke: gray; fill: none;"/><path class="er relationshipLine" d="M192.868,154L192.868,162.333C192.868,170.667,192.868,187.333,192.868,218.833C192.868,250.333,192.868,296.667,192.868,343C192.868,389.333,192.868,435.667,192.868,467.167C192.868,498.667,192.868,515.333,192.868,523.667L192.868,532" marker-end="url(#ZERO_OR_MORE_END)" marker-start="url(#ONLY_ONE_START)" style="stroke: gray; fill: none;"/><path class="er relationshipLine" d="M365.531,432L365.531,440.333C365.531,448.667,365.531,465.333,352.222,486.925C338.912,508.517,312.292,535.035,298.982,548.293L285.672,561.552" marker-end="url(#ZERO_OR_MORE_END)" marker-start="url(#ONLY_ONE_START)" style="stroke: gray; fill: none;"/><path class="er relationshipLine" d="M125.387,776L120.778,784.333C116.169,792.667,106.95,809.333,102.341,829.667C97.731,850,97.731,874,97.731,886L97.731,898" marker-end="url(#ZERO_OR_MORE_END)" marker-start="url(#ONLY_ONE_START)" style="stroke: gray; fill: none;"/><path class="er relationshipLine" d="M285.672,749.127L298.172,761.94C310.671,774.752,335.669,800.376,348.169,821.521C360.668,842.667,360.668,859.333,360.668,867.667L360.668,876" marker-end="url(#ZERO_OR_MORE_END)" marker-start="url(#ONLY_ONE_START)" style="stroke: gray; fill: none;"/><path class="er relationshipLine" d="M360.668,988L360.668,996.333C360.668,1004.667,360.668,1021.333,360.668,1038C360.668,1054.667,360.668,1071.333,360.668,1079.667L360.668,1088" marker-end="url(#ZERO_OR_MORE_END)" marker-start="url(#ONLY_ONE_START)" style="stroke: gray; fill: none;"/><g id="entity-AGENT-fde4707e-5369-5d82-abe3-6b0ba9f07614" transform="translate(128.50627899169922,20 )"><rect class="er entityBox" x="0" y="0" width="128.7233123779297" height="134"/><text class="er entityLabel" id="text-entity-AGENT-fde4707e-5369-5d82-abe3-6b0ba9f07614" x="0" y="0" style="dominant-baseline: middle; text-anchor: middle; font-size: 12px;" transform="translate(64.36165618896484,12)">AGENT</text><rect class="er attributeBoxOdd" x="0" y="24" width="49.79243469238281" height="22"/><text class="er entityLabel" id="text-entity-AGENT-fde4707e-5369-5d82-abe3-6b0ba9f07614-attr-1-type" x="0" y="0" style="dominant-baseline: middle; font-size: 10.2px;" transform="translate(5,35)">ObjectId</text><rect class="er attributeBoxOdd" x="49.79243469238281" y="24" width="56.243194580078125" height="22"/><text class="er entityLabel" id="text-entity-AGENT-fde4707e-5369-5d82-abe3-6b0ba9f07614-attr-1-name" x="0" y="0" style="dominant-baseline: middle; font-size: 10.2px;" transform="translate(54.79243469238281,35)">_id</text><rect class="er attributeBoxOdd" x="106.03562927246094" y="24" width="22.68768310546875" height="22"/><text class="er entityLabel" id="text-entity-AGENT-fde4707e-5369-5d82-abe3-6b0ba9f07614-attr-1-key" x="0" y="0" style="dominant-baseline: middle; font-size: 10.2px;" transform="translate(111.03562927246094,35)">PK</text><rect class="er attributeBoxEven" x="0" y="46" width="49.79243469238281" height="22"/><text class="er entityLabel" id="text-entity-AGENT-fde4707e-5369-5d82-abe3-6b0ba9f07614-attr-2-type" x="0" y="0" style="dominant-baseline: middle; font-size: 10.2px;" transform="translate(5,57)">string</text><rect class="er attributeBoxEven" x="49.79243469238281" y="46" width="56.243194580078125" height="22"/><text class="er entityLabel" id="text-entity-AGENT-fde4707e-5369-5d82-abe3-6b0ba9f07614-attr-2-name" x="0" y="0" style="dominant-baseline: middle; font-size: 10.2px;" transform="translate(54.79243469238281,57)">name</text><rect class="er attributeBoxEven" x="106.03562927246094" y="46" width="22.68768310546875" height="22"/><text class="er entityLabel" id="text-entity-AGENT-fde4707e-5369-5d82-abe3-6b0ba9f07614-attr-2-key" x="0" y="0" style="dominant-baseline: middle; font-size: 10.2px;" transform="translate(111.03562927246094,57)"/><rect class="er attributeBoxOdd" x="0" y="68" width="49.79243469238281" height="22"/><text class="er entityLabel" id="text-entity-AGENT-fde4707e-5369-5d82-abe3-6b0ba9f07614-attr-3-type" x="0" y="0" style="dominant-baseline: middle; font-size: 10.2px;" transform="translate(5,79)">string</text><rect class="er attributeBoxOdd" x="49.79243469238281" y="68" width="56.243194580078125" height="22"/><text class="er entityLabel" id="text-entity-AGENT-fde4707e-5369-5d82-abe3-6b0ba9f07614-attr-3-name" x="0" y="0" style="dominant-baseline: middle; font-size: 10.2px;" transform="translate(54.79243469238281,79)">email</text><rect class="er attributeBoxOdd" x="106.03562927246094" y="68" width="22.68768310546875" height="22"/><text class="er entityLabel" id="text-entity-AGENT-fde4707e-5369-5d82-abe3-6b0ba9f07614-attr-3-key" x="0" y="0" style="dominant-baseline: middle; font-size: 10.2px;" transform="translate(111.03562927246094,79)"/><rect class="er attributeBoxEven" x="0" y="90" width="49.79243469238281" height="22"/><text class="er entityLabel" id="text-entity-AGENT-fde4707e-5369-5d82-abe3-6b0ba9f07614-attr-4-type" x="0" y="0" style="dominant-baseline: middle; font-size: 10.2px;" transform="translate(5,101)">string</text><rect class="er attributeBoxEven" x="49.79243469238281" y="90" width="56.243194580078125" height="22"/><text class="er entityLabel" id="text-entity-AGENT-fde4707e-5369-5d82-abe3-6b0ba9f07614-attr-4-name" x="0" y="0" style="dominant-baseline: middle; font-size: 10.2px;" transform="translate(54.79243469238281,101)">phone</text><rect class="er attributeBoxEven" x="106.03562927246094" y="90" width="22.68768310546875" height="22"/><text class="er entityLabel" id="text-entity-AGENT-fde4707e-5369-5d82-abe3-6b0ba9f07614-attr-4-key" x="0" y="0" style="dominant-baseline: middle; font-size: 10.2px;" transform="translate(111.03562927246094,101)"/><rect class="er attributeBoxOdd" x="0" y="112" width="49.79243469238281" height="22"/><text class="er entityLabel" id="text-entity-AGENT-fde4707e-5369-5d82-abe3-6b0ba9f07614-attr-5-type" x="0" y="0" style="dominant-baseline: middle; font-size: 10.2px;" transform="translate(5,123)">date</text><rect class="er attributeBoxOdd" x="49.79243469238281" y="112" width="56.243194580078125" height="22"/><text class="er entityLabel" id="text-entity-AGENT-fde4707e-5369-5d82-abe3-6b0ba9f07614-attr-5-name" x="0" y="0" style="dominant-baseline: middle; font-size: 10.2px;" transform="translate(54.79243469238281,123)">createdAt</text><rect class="er attributeBoxOdd" x="106.03562927246094" y="112" width="22.68768310546875" height="22"/><text class="er entityLabel" id="text-entity-AGENT-fde4707e-5369-5d82-abe3-6b0ba9f07614-attr-5-key" x="0" y="0" style="dominant-baseline: middle; font-size: 10.2px;" transform="translate(111.03562927246094,123)"/></g><g id="entity-PROPERTY-ef67ef10-931a-508c-a211-2ca2f987ce03" transform="translate(292.86793518066406,254 )"><rect class="er entityBox" x="0" y="0" width="145.32708740234375" height="178"/><text class="er entityLabel" id="text-entity-PROPERTY-ef67ef10-931a-508c-a211-2ca2f987ce03" x="0" y="0" style="dominant-baseline: middle; text-anchor: middle; font-size: 12px;" transform="translate(72.66354370117188,12)">PROPERTY</text><rect class="er attributeBoxOdd" x="0" y="24" width="49.79243469238281" height="22"/><text class="er entityLabel" id="text-entity-PROPERTY-ef67ef10-931a-508c-a211-2ca2f987ce03-attr-1-type" x="0" y="0" style="dominant-baseline: middle; font-size: 10.2px;" transform="translate(5,35)">ObjectId</text><rect class="er attributeBoxOdd" x="49.79243469238281" y="24" width="72.84696960449219" height="22"/><text class="er entityLabel" id="text-entity-PROPERTY-ef67ef10-931a-508c-a211-2ca2f987ce03-attr-1-name" x="0" y="0" style="dominant-baseline: middle; font-size: 10.2px;" transform="translate(54.79243469238281,35)">_id</text><rect class="er attributeBoxOdd" x="122.639404296875" y="24" width="22.68768310546875" height="22"/><text class="er entityLabel" id="text-entity-PROPERTY-ef67ef10-931a-508c-a211-2ca2f987ce03-attr-1-key" x="0" y="0" style="dominant-baseline: middle; font-size: 10.2px;" transform="translate(127.639404296875,35)">PK</text><rect class="er attributeBoxEven" x="0" y="46" width="49.79243469238281" height="22"/><text class="er entityLabel" id="text-entity-PROPERTY-ef67ef10-931a-508c-a211-2ca2f987ce03-attr-2-type" x="0" y="0" style="dominant-baseline: middle; font-size: 10.2px;" transform="translate(5,57)">string</text><rect class="er attributeBoxEven" x="49.79243469238281" y="46" width="72.84696960449219" height="22"/><text class="er entityLabel" id="text-entity-PROPERTY-ef67ef10-931a-508c-a211-2ca2f987ce03-attr-2-name" x="0" y="0" style="dominant-baseline: middle; font-size: 10.2px;" transform="translate(54.79243469238281,57)">title</text><rect class="er attributeBoxEven" x="122.639404296875" y="46" width="22.68768310546875" height="22"/><text class="er entityLabel" id="text-entity-PROPERTY-ef67ef10-931a-508c-a211-2ca2f987ce03-attr-2-key" x="0" y="0" style="dominant-baseline: middle; font-size: 10.2px;" transform="translate(127.639404296875,57)"/><rect class="er attributeBoxOdd" x="0" y="68" width="49.79243469238281" height="22"/><text class="er entityLabel" id="text-entity-PROPERTY-ef67ef10-931a-508c-a211-2ca2f987ce03-attr-3-type" x="0" y="0" style="dominant-baseline: middle; font-size: 10.2px;" transform="translate(5,79)">string</text><rect class="er attributeBoxOdd" x="49.79243469238281" y="68" width="72.84696960449219" height="22"/><text class="er entityLabel" id="text-entity-PROPERTY-ef67ef10-931a-508c-a211-2ca2f987ce03-attr-3-name" x="0" y="0" style="dominant-baseline: middle; font-size: 10.2px;" transform="translate(54.79243469238281,79)">address</text><rect class="er attributeBoxOdd" x="122.639404296875" y="68" width="22.68768310546875" height="22"/><text class="er entityLabel" id="text-entity-PROPERTY-ef67ef10-931a-508c-a211-2ca2f987ce03-attr-3-key" x="0" y="0" style="dominant-baseline: middle; font-size: 10.2px;" transform="translate(127.639404296875,79)"/><rect class="er attributeBoxEven" x="0" y="90" width="49.79243469238281" height="22"/><text class="er entityLabel" id="text-entity-PROPERTY-ef67ef10-931a-508c-a211-2ca2f987ce03-attr-4-type" x="0" y="0" style="dominant-baseline: middle; font-size: 10.2px;" transform="translate(5,101)">string</text><rect class="er attributeBoxEven" x="49.79243469238281" y="90" width="72.84696960449219" height="22"/><text class="er entityLabel" id="text-entity-PROPERTY-ef67ef10-931a-508c-a211-2ca2f987ce03-attr-4-name" x="0" y="0" style="dominant-baseline: middle; font-size: 10.2px;" transform="translate(54.79243469238281,101)">type</text><rect class="er attributeBoxEven" x="122.639404296875" y="90" width="22.68768310546875" height="22"/><text class="er entityLabel" id="text-entity-PROPERTY-ef67ef10-931a-508c-a211-2ca2f987ce03-attr-4-key" x="0" y="0" style="dominant-baseline: middle; font-size: 10.2px;" transform="translate(127.639404296875,101)"/><rect class="er attributeBoxOdd" x="0" y="112" width="49.79243469238281" height="22"/><text class="er entityLabel" id="text-entity-PROPERTY-ef67ef10-931a-508c-a211-2ca2f987ce03-attr-5-type" x="0" y="0" style="dominant-baseline: middle; font-size: 10.2px;" transform="translate(5,123)">number</text><rect class="er attributeBoxOdd" x="49.79243469238281" y="112" width="72.84696960449219" height="22"/><text class="er entityLabel" id="text-entity-PROPERTY-ef67ef10-931a-508c-a211-2ca2f987ce03-attr-5-name" x="0" y="0" style="dominant-baseline: middle; font-size: 10.2px;" transform="translate(54.79243469238281,123)">price</text><rect class="er attributeBoxOdd" x="122.639404296875" y="112" width="22.68768310546875" height="22"/><text class="er entityLabel" id="text-entity-PROPERTY-ef67ef10-931a-508c-a211-2ca2f987ce03-attr-5-key" x="0" y="0" style="dominant-baseline: middle; font-size: 10.2px;" transform="translate(127.639404296875,123)"/><rect class="er attributeBoxEven" x="0" y="134" width="49.79243469238281" height="22"/><text class="er entityLabel" id="text-entity-PROPERTY-ef67ef10-931a-508c-a211-2ca2f987ce03-attr-6-type" x="0" y="0" style="dominant-baseline: middle; font-size: 10.2px;" transform="translate(5,145)">ObjectId</text><rect class="er attributeBoxEven" x="49.79243469238281" y="134" width="72.84696960449219" height="22"/><text class="er entityLabel" id="text-entity-PROPERTY-ef67ef10-931a-508c-a211-2ca2f987ce03-attr-6-name" x="0" y="0" style="dominant-baseline: middle; font-size: 10.2px;" transform="translate(54.79243469238281,145)">listingAgentId</text><rect class="er attributeBoxEven" x="122.639404296875" y="134" width="22.68768310546875" height="22"/><text class="er entityLabel" id="text-entity-PROPERTY-ef67ef10-931a-508c-a211-2ca2f987ce03-attr-6-key" x="0" y="0" style="dominant-baseline: middle; font-size: 10.2px;" transform="translate(127.639404296875,145)">FK</text><rect class="er attributeBoxOdd" x="0" y="156" width="49.79243469238281" height="22"/><text class="er entityLabel" id="text-entity-PROPERTY-ef67ef10-931a-508c-a211-2ca2f987ce03-attr-7-type" x="0" y="0" style="dominant-baseline: middle; font-size: 10.2px;" transform="translate(5,167)">date</text><rect class="er attributeBoxOdd" x="49.79243469238281" y="156" width="72.84696960449219" height="22"/><text class="er entityLabel" id="text-entity-PROPERTY-ef67ef10-931a-508c-a211-2ca2f987ce03-attr-7-name" x="0" y="0" style="dominant-baseline: middle; font-size: 10.2px;" transform="translate(54.79243469238281,167)">createdAt</text><rect class="er attributeBoxOdd" x="122.639404296875" y="156" width="22.68768310546875" height="22"/><text class="er entityLabel" id="text-entity-PROPERTY-ef67ef10-931a-508c-a211-2ca2f987ce03-attr-7-key" x="0" y="0" style="dominant-baseline: middle; font-size: 10.2px;" transform="translate(127.639404296875,167)"/></g><g id="entity-TRANSACTION-33a4f79e-93d2-5b31-be7e-7dfe596c998b" transform="translate(100.06339263916016,532 )"><rect class="er entityBox" x="0" y="0" width="185.6090850830078" height="244"/><text class="er entityLabel" id="text-entity-TRANSACTION-33a4f79e-93d2-5b31-be7e-7dfe596c998b" x="0" y="0" style="dominant-baseline: middle; text-anchor: middle; font-size: 12px;" transform="translate(92.8045425415039,12)">TRANSACTION</text><rect class="er attributeBoxOdd" x="0" y="24" width="49.79243469238281" height="22"/><text class="er entityLabel" id="text-entity-TRANSACTION-33a4f79e-93d2-5b31-be7e-7dfe596c998b-attr-1-type" x="0" y="0" style="dominant-baseline: middle; font-size: 10.2px;" transform="translate(5,35)">ObjectId</text><rect class="er attributeBoxOdd" x="49.79243469238281" y="24" width="113.12896728515625" height="22"/><text class="er entityLabel" id="text-entity-TRANSACTION-33a4f79e-93d2-5b31-be7e-7dfe596c998b-attr-1-name" x="0" y="0" style="dominant-baseline: middle; font-size: 10.2px;" transform="translate(54.79243469238281,35)">_id</text><rect class="er attributeBoxOdd" x="162.92140197753906" y="24" width="22.68768310546875" height="22"/><text class="er entityLabel" id="text-entity-TRANSACTION-33a4f79e-93d2-5b31-be7e-7dfe596c998b-attr-1-key" x="0" y="0" style="dominant-baseline: middle; font-size: 10.2px;" transform="translate(167.92140197753906,35)">PK</text><rect class="er attributeBoxEven" x="0" y="46" width="49.79243469238281" height="22"/><text class="er entityLabel" id="text-entity-TRANSACTION-33a4f79e-93d2-5b31-be7e-7dfe596c998b-attr-2-type" x="0" y="0" style="dominant-baseline: middle; font-size: 10.2px;" transform="translate(5,57)">ObjectId</text><rect class="er attributeBoxEven" x="49.79243469238281" y="46" width="113.12896728515625" height="22"/><text class="er entityLabel" id="text-entity-TRANSACTION-33a4f79e-93d2-5b31-be7e-7dfe596c998b-attr-2-name" x="0" y="0" style="dominant-baseline: middle; font-size: 10.2px;" transform="translate(54.79243469238281,57)">propertyId</text><rect class="er attributeBoxEven" x="162.92140197753906" y="46" width="22.68768310546875" height="22"/><text class="er entityLabel" id="text-entity-TRANSACTION-33a4f79e-93d2-5b31-be7e-7dfe596c998b-attr-2-key" x="0" y="0" style="dominant-baseline: middle; font-size: 10.2px;" transform="translate(167.92140197753906,57)">FK</text><rect class="er attributeBoxOdd" x="0" y="68" width="49.79243469238281" height="22"/><text class="er entityLabel" id="text-entity-TRANSACTION-33a4f79e-93d2-5b31-be7e-7dfe596c998b-attr-3-type" x="0" y="0" style="dominant-baseline: middle; font-size: 10.2px;" transform="translate(5,79)">ObjectId</text><rect class="er attributeBoxOdd" x="49.79243469238281" y="68" width="113.12896728515625" height="22"/><text class="er entityLabel" id="text-entity-TRANSACTION-33a4f79e-93d2-5b31-be7e-7dfe596c998b-attr-3-name" x="0" y="0" style="dominant-baseline: middle; font-size: 10.2px;" transform="translate(54.79243469238281,79)">listingAgentId</text><rect class="er attributeBoxOdd" x="162.92140197753906" y="68" width="22.68768310546875" height="22"/><text class="er entityLabel" id="text-entity-TRANSACTION-33a4f79e-93d2-5b31-be7e-7dfe596c998b-attr-3-key" x="0" y="0" style="dominant-baseline: middle; font-size: 10.2px;" transform="translate(167.92140197753906,79)">FK</text><rect class="er attributeBoxEven" x="0" y="90" width="49.79243469238281" height="22"/><text class="er entityLabel" id="text-entity-TRANSACTION-33a4f79e-93d2-5b31-be7e-7dfe596c998b-attr-4-type" x="0" y="0" style="dominant-baseline: middle; font-size: 10.2px;" transform="translate(5,101)">ObjectId</text><rect class="er attributeBoxEven" x="49.79243469238281" y="90" width="113.12896728515625" height="22"/><text class="er entityLabel" id="text-entity-TRANSACTION-33a4f79e-93d2-5b31-be7e-7dfe596c998b-attr-4-name" x="0" y="0" style="dominant-baseline: middle; font-size: 10.2px;" transform="translate(54.79243469238281,101)">sellingAgentId</text><rect class="er attributeBoxEven" x="162.92140197753906" y="90" width="22.68768310546875" height="22"/><text class="er entityLabel" id="text-entity-TRANSACTION-33a4f79e-93d2-5b31-be7e-7dfe596c998b-attr-4-key" x="0" y="0" style="dominant-baseline: middle; font-size: 10.2px;" transform="translate(167.92140197753906,101)">FK</text><rect class="er attributeBoxOdd" x="0" y="112" width="49.79243469238281" height="22"/><text class="er entityLabel" id="text-entity-TRANSACTION-33a4f79e-93d2-5b31-be7e-7dfe596c998b-attr-5-type" x="0" y="0" style="dominant-baseline: middle; font-size: 10.2px;" transform="translate(5,123)">enum</text><rect class="er attributeBoxOdd" x="49.79243469238281" y="112" width="113.12896728515625" height="22"/><text class="er entityLabel" id="text-entity-TRANSACTION-33a4f79e-93d2-5b31-be7e-7dfe596c998b-attr-5-name" x="0" y="0" style="dominant-baseline: middle; font-size: 10.2px;" transform="translate(54.79243469238281,123)">stage</text><rect class="er attributeBoxOdd" x="162.92140197753906" y="112" width="22.68768310546875" height="22"/><text class="er entityLabel" id="text-entity-TRANSACTION-33a4f79e-93d2-5b31-be7e-7dfe596c998b-attr-5-key" x="0" y="0" style="dominant-baseline: middle; font-size: 10.2px;" transform="translate(167.92140197753906,123)"/><rect class="er attributeBoxEven" x="0" y="134" width="49.79243469238281" height="22"/><text class="er entityLabel" id="text-entity-TRANSACTION-33a4f79e-93d2-5b31-be7e-7dfe596c998b-attr-6-type" x="0" y="0" style="dominant-baseline: middle; font-size: 10.2px;" transform="translate(5,145)">number</text><rect class="er attributeBoxEven" x="49.79243469238281" y="134" width="113.12896728515625" height="22"/><text class="er entityLabel" id="text-entity-TRANSACTION-33a4f79e-93d2-5b31-be7e-7dfe596c998b-attr-6-name" x="0" y="0" style="dominant-baseline: middle; font-size: 10.2px;" transform="translate(54.79243469238281,145)">totalServiceFee</text><rect class="er attributeBoxEven" x="162.92140197753906" y="134" width="22.68768310546875" height="22"/><text class="er entityLabel" id="text-entity-TRANSACTION-33a4f79e-93d2-5b31-be7e-7dfe596c998b-attr-6-key" x="0" y="0" style="dominant-baseline: middle; font-size: 10.2px;" transform="translate(167.92140197753906,145)"/><rect class="er attributeBoxOdd" x="0" y="156" width="49.79243469238281" height="22"/><text class="er entityLabel" id="text-entity-TRANSACTION-33a4f79e-93d2-5b31-be7e-7dfe596c998b-attr-7-type" x="0" y="0" style="dominant-baseline: middle; font-size: 10.2px;" transform="translate(5,167)">array</text><rect class="er attributeBoxOdd" x="49.79243469238281" y="156" width="113.12896728515625" height="22"/><text class="er entityLabel" id="text-entity-TRANSACTION-33a4f79e-93d2-5b31-be7e-7dfe596c998b-attr-7-name" x="0" y="0" style="dominant-baseline: middle; font-size: 10.2px;" transform="translate(54.79243469238281,167)">stageHistory</text><rect class="er attributeBoxOdd" x="162.92140197753906" y="156" width="22.68768310546875" height="22"/><text class="er entityLabel" id="text-entity-TRANSACTION-33a4f79e-93d2-5b31-be7e-7dfe596c998b-attr-7-key" x="0" y="0" style="dominant-baseline: middle; font-size: 10.2px;" transform="translate(167.92140197753906,167)"/><rect class="er attributeBoxEven" x="0" y="178" width="49.79243469238281" height="22"/><text class="er entityLabel" id="text-entity-TRANSACTION-33a4f79e-93d2-5b31-be7e-7dfe596c998b-attr-8-type" x="0" y="0" style="dominant-baseline: middle; font-size: 10.2px;" transform="translate(5,189)">object</text><rect class="er attributeBoxEven" x="49.79243469238281" y="178" width="113.12896728515625" height="22"/><text class="er entityLabel" id="text-entity-TRANSACTION-33a4f79e-93d2-5b31-be7e-7dfe596c998b-attr-8-name" x="0" y="0" style="dominant-baseline: middle; font-size: 10.2px;" transform="translate(54.79243469238281,189)">commissionBreakdown</text><rect class="er attributeBoxEven" x="162.92140197753906" y="178" width="22.68768310546875" height="22"/><text class="er entityLabel" id="text-entity-TRANSACTION-33a4f79e-93d2-5b31-be7e-7dfe596c998b-attr-8-key" x="0" y="0" style="dominant-baseline: middle; font-size: 10.2px;" transform="translate(167.92140197753906,189)"/><rect class="er attributeBoxOdd" x="0" y="200" width="49.79243469238281" height="22"/><text class="er entityLabel" id="text-entity-TRANSACTION-33a4f79e-93d2-5b31-be7e-7dfe596c998b-attr-9-type" x="0" y="0" style="dominant-baseline: middle; font-size: 10.2px;" transform="translate(5,211)">date</text><rect class="er attributeBoxOdd" x="49.79243469238281" y="200" width="113.12896728515625" height="22"/><text class="er entityLabel" id="text-entity-TRANSACTION-33a4f79e-93d2-5b31-be7e-7dfe596c998b-attr-9-name" x="0" y="0" style="dominant-baseline: middle; font-size: 10.2px;" transform="translate(54.79243469238281,211)">agreedAt</text><rect class="er attributeBoxOdd" x="162.92140197753906" y="200" width="22.68768310546875" height="22"/><text class="er entityLabel" id="text-entity-TRANSACTION-33a4f79e-93d2-5b31-be7e-7dfe596c998b-attr-9-key" x="0" y="0" style="dominant-baseline: middle; font-size: 10.2px;" transform="translate(167.92140197753906,211)"/><rect class="er attributeBoxEven" x="0" y="222" width="49.79243469238281" height="22"/><text class="er entityLabel" id="text-entity-TRANSACTION-33a4f79e-93d2-5b31-be7e-7dfe596c998b-attr-10-type" x="0" y="0" style="dominant-baseline: middle; font-size: 10.2px;" transform="translate(5,233)">date</text><rect class="er attributeBoxEven" x="49.79243469238281" y="222" width="113.12896728515625" height="22"/><text class="er entityLabel" id="text-entity-TRANSACTION-33a4f79e-93d2-5b31-be7e-7dfe596c998b-attr-10-name" x="0" y="0" style="dominant-baseline: middle; font-size: 10.2px;" transform="translate(54.79243469238281,233)">completedAt</text><rect class="er attributeBoxEven" x="162.92140197753906" y="222" width="22.68768310546875" height="22"/><text class="er entityLabel" id="text-entity-TRANSACTION-33a4f79e-93d2-5b31-be7e-7dfe596c998b-attr-10-key" x="0" y="0" style="dominant-baseline: middle; font-size: 10.2px;" transform="translate(167.92140197753906,233)"/></g><g id="entity-STAGEHISTORYENTRY-19e4c36d-81af-5667-844d-7f2d27bdeab6" transform="translate(20,898 )"><rect class="er entityBox" x="0" y="0" width="155.462890625" height="68"/><text class="er entityLabel" id="text-entity-STAGEHISTORYENTRY-19e4c36d-81af-5667-844d-7f2d27bdeab6" x="0" y="0" style="dominant-baseline: middle; text-anchor: middle; font-size: 12px;" transform="translate(77.7314453125,12)">STAGE_HISTORY_ENTRY</text><rect class="er attributeBoxOdd" x="0" y="24" width="66.57217407226562" height="22"/><text class="er entityLabel" id="text-entity-STAGEHISTORYENTRY-19e4c36d-81af-5667-844d-7f2d27bdeab6-attr-1-type" x="0" y="0" style="dominant-baseline: middle; font-size: 10.2px;" transform="translate(5,35)">string</text><rect class="er attributeBoxOdd" x="66.57217407226562" y="24" width="88.89071655273438" height="22"/><text class="er entityLabel" id="text-entity-STAGEHISTORYENTRY-19e4c36d-81af-5667-844d-7f2d27bdeab6-attr-1-name" x="0" y="0" style="dominant-baseline: middle; font-size: 10.2px;" transform="translate(71.57217407226562,35)">stage</text><rect class="er attributeBoxEven" x="0" y="46" width="66.57217407226562" height="22"/><text class="er entityLabel" id="text-entity-STAGEHISTORYENTRY-19e4c36d-81af-5667-844d-7f2d27bdeab6-attr-2-type" x="0" y="0" style="dominant-baseline: middle; font-size: 10.2px;" transform="translate(5,57)">date</text><rect class="er attributeBoxEven" x="66.57217407226562" y="46" width="88.89071655273438" height="22"/><text class="er entityLabel" id="text-entity-STAGEHISTORYENTRY-19e4c36d-81af-5667-844d-7f2d27bdeab6-attr-2-name" x="0" y="0" style="dominant-baseline: middle; font-size: 10.2px;" transform="translate(71.57217407226562,57)">changedAt</text></g><g id="entity-COMMISSIONBREAKDOWN-ccc7fbc8-8378-5bff-b51e-b7cb1be618a2" transform="translate(275.462890625,876 )"><rect class="er entityBox" x="0" y="0" width="170.41015625" height="112"/><text class="er entityLabel" id="text-entity-COMMISSIONBREAKDOWN-ccc7fbc8-8378-5bff-b51e-b7cb1be618a2" x="0" y="0" style="dominant-baseline: middle; text-anchor: middle; font-size: 12px;" transform="translate(85.205078125,12)">COMMISSION_BREAKDOWN</text><rect class="er attributeBoxOdd" x="0" y="24" width="73.77742004394531" height="22"/><text class="er entityLabel" id="text-entity-COMMISSIONBREAKDOWN-ccc7fbc8-8378-5bff-b51e-b7cb1be618a2-attr-1-type" x="0" y="0" style="dominant-baseline: middle; font-size: 10.2px;" transform="translate(5,35)">number</text><rect class="er attributeBoxOdd" x="73.77742004394531" y="24" width="96.63273620605469" height="22"/><text class="er entityLabel" id="text-entity-COMMISSIONBREAKDOWN-ccc7fbc8-8378-5bff-b51e-b7cb1be618a2-attr-1-name" x="0" y="0" style="dominant-baseline: middle; font-size: 10.2px;" transform="translate(78.77742004394531,35)">agency</text><rect class="er attributeBoxEven" x="0" y="46" width="73.77742004394531" height="22"/><text class="er entityLabel" id="text-entity-COMMISSIONBREAKDOWN-ccc7fbc8-8378-5bff-b51e-b7cb1be618a2-attr-2-type" x="0" y="0" style="dominant-baseline: middle; font-size: 10.2px;" transform="translate(5,57)">array</text><rect class="er attributeBoxEven" x="73.77742004394531" y="46" width="96.63273620605469" height="22"/><text class="er entityLabel" id="text-entity-COMMISSIONBREAKDOWN-ccc7fbc8-8378-5bff-b51e-b7cb1be618a2-attr-2-name" x="0" y="0" style="dominant-baseline: middle; font-size: 10.2px;" transform="translate(78.77742004394531,57)">agents</text><rect class="er attributeBoxOdd" x="0" y="68" width="73.77742004394531" height="22"/><text class="er entityLabel" id="text-entity-COMMISSIONBREAKDOWN-ccc7fbc8-8378-5bff-b51e-b7cb1be618a2-attr-3-type" x="0" y="0" style="dominant-baseline: middle; font-size: 10.2px;" transform="translate(5,79)">date</text><rect class="er attributeBoxOdd" x="73.77742004394531" y="68" width="96.63273620605469" height="22"/><text class="er entityLabel" id="text-entity-COMMISSIONBREAKDOWN-ccc7fbc8-8378-5bff-b51e-b7cb1be618a2-attr-3-name" x="0" y="0" style="dominant-baseline: middle; font-size: 10.2px;" transform="translate(78.77742004394531,79)">calculatedAt</text><rect class="er attributeBoxEven" x="0" y="90" width="73.77742004394531" height="22"/><text class="er entityLabel" id="text-entity-COMMISSIONBREAKDOWN-ccc7fbc8-8378-5bff-b51e-b7cb1be618a2-attr-4-type" x="0" y="0" style="dominant-baseline: middle; font-size: 10.2px;" transform="translate(5,101)">string</text><rect class="er attributeBoxEven" x="73.77742004394531" y="90" width="96.63273620605469" height="22"/><text class="er entityLabel" id="text-entity-COMMISSIONBREAKDOWN-ccc7fbc8-8378-5bff-b51e-b7cb1be618a2-attr-4-name" x="0" y="0" style="dominant-baseline: middle; font-size: 10.2px;" transform="translate(78.77742004394531,101)">ruleVersion</text></g><g id="entity-AGENTSNAPSHOT-92538a58-5c59-552f-965f-ba74f6e13fec" transform="translate(295.4443359375,1088 )"><rect class="er entityBox" x="0" y="0" width="130.447265625" height="112"/><text class="er entityLabel" id="text-entity-AGENTSNAPSHOT-92538a58-5c59-552f-965f-ba74f6e13fec" x="0" y="0" style="dominant-baseline: middle; text-anchor: middle; font-size: 12px;" transform="translate(65.2236328125,12)">AGENT_SNAPSHOT</text><rect class="er attributeBoxOdd" x="0" y="24" width="67.39706420898438" height="22"/><text class="er entityLabel" id="text-entity-AGENTSNAPSHOT-92538a58-5c59-552f-965f-ba74f6e13fec-attr-1-type" x="0" y="0" style="dominant-baseline: middle; font-size: 10.2px;" transform="translate(5,35)">ObjectId</text><rect class="er attributeBoxOdd" x="67.39706420898438" y="24" width="63.050201416015625" height="22"/><text class="er entityLabel" id="text-entity-AGENTSNAPSHOT-92538a58-5c59-552f-965f-ba74f6e13fec-attr-1-name" x="0" y="0" style="dominant-baseline: middle; font-size: 10.2px;" transform="translate(72.39706420898438,35)">agentId</text><rect class="er attributeBoxEven" x="0" y="46" width="67.39706420898438" height="22"/><text class="er entityLabel" id="text-entity-AGENTSNAPSHOT-92538a58-5c59-552f-965f-ba74f6e13fec-attr-2-type" x="0" y="0" style="dominant-baseline: middle; font-size: 10.2px;" transform="translate(5,57)">string</text><rect class="er attributeBoxEven" x="67.39706420898438" y="46" width="63.050201416015625" height="22"/><text class="er entityLabel" id="text-entity-AGENTSNAPSHOT-92538a58-5c59-552f-965f-ba74f6e13fec-attr-2-name" x="0" y="0" style="dominant-baseline: middle; font-size: 10.2px;" transform="translate(72.39706420898438,57)">name</text><rect class="er attributeBoxOdd" x="0" y="68" width="67.39706420898438" height="22"/><text class="er entityLabel" id="text-entity-AGENTSNAPSHOT-92538a58-5c59-552f-965f-ba74f6e13fec-attr-3-type" x="0" y="0" style="dominant-baseline: middle; font-size: 10.2px;" transform="translate(5,79)">string</text><rect class="er attributeBoxOdd" x="67.39706420898438" y="68" width="63.050201416015625" height="22"/><text class="er entityLabel" id="text-entity-AGENTSNAPSHOT-92538a58-5c59-552f-965f-ba74f6e13fec-attr-3-name" x="0" y="0" style="dominant-baseline: middle; font-size: 10.2px;" transform="translate(72.39706420898438,79)">role</text><rect class="er attributeBoxEven" x="0" y="90" width="67.39706420898438" height="22"/><text class="er entityLabel" id="text-entity-AGENTSNAPSHOT-92538a58-5c59-552f-965f-ba74f6e13fec-attr-4-type" x="0" y="0" style="dominant-baseline: middle; font-size: 10.2px;" transform="translate(5,101)">number</text><rect class="er attributeBoxEven" x="67.39706420898438" y="90" width="63.050201416015625" height="22"/><text class="er entityLabel" id="text-entity-AGENTSNAPSHOT-92538a58-5c59-552f-965f-ba74f6e13fec-attr-4-name" x="0" y="0" style="dominant-baseline: middle; font-size: 10.2px;" transform="translate(72.39706420898438,101)">amount</text></g><rect class="er relationshipLabelBox" x="316.5619201660156" y="173.98837280273438" width="21.576171875" height="14"/><text class="er relationshipLabel" id="rel1" x="327.3500061035156" y="180.98837280273438" style="text-anchor: middle; dominant-baseline: middle; font-size: 12px;">lists</text><rect class="er relationshipLabelBox" x="59.55701446533203" y="333.29461669921875" width="66.623046875" height="14"/><text class="er relationshipLabel" id="rel2" x="92.86853790283203" y="340.29461669921875" style="text-anchor: middle; dominant-baseline: middle; font-size: 12px;">listing agent</text><rect class="er relationshipLabelBox" x="158.6043243408203" y="336" width="68.52734375" height="14"/><text class="er relationshipLabel" id="rel3" x="192.8679962158203" y="343" style="text-anchor: middle; dominant-baseline: middle; font-size: 12px;">selling agent</text><rect class="er relationshipLabelBox" x="319.77325439453125" y="497.24847412109375" width="39.986328125" height="14"/><text class="er relationshipLabel" id="rel4" x="339.76641845703125" y="504.24847412109375" style="text-anchor: middle; dominant-baseline: middle; font-size: 12px;">subject</text><rect class="er relationshipLabelBox" x="84.96915435791016" y="827.5638427734375" width="32.720703125" height="14"/><text class="er relationshipLabel" id="rel5" x="101.32950592041016" y="834.5638427734375" style="text-anchor: middle; dominant-baseline: middle; font-size: 12px;">tracks</text><rect class="er relationshipLabelBox" x="316.3984680175781" y="798.442626953125" width="41.421875" height="14"/><text class="er relationshipLabel" id="rel6" x="337.1094055175781" y="805.442626953125" style="text-anchor: middle; dominant-baseline: middle; font-size: 12px;">embeds</text><rect class="er relationshipLabelBox" x="338.1787414550781" y="1031" width="44.978515625" height="14"/><text class="er relationshipLabel" id="rel7" x="360.6679992675781" y="1038" style="text-anchor: middle; dominant-baseline: middle; font-size: 12px;">contains</text></svg>